# xmcd CD database file
#
# Track frame offsets:
#	150
#	15248
#	32415
#	46393
#	63092
#	77786
#	94143
#	104014
#	121559
#	137348
#	149833
#	164627
#	180161
#	192554
#
# Disc length: 2776 seconds
#
# Revision: 0
# Processed by: cddbd v1.5.2PL0 Copyright (c) Steve Scherf et al.
# Submitted via: CDex 1.70beta2
#
DISCID=b30ad60e
DTITLE=Sergio Reis - Grandes amigos da viola
DYEAR=2008
DGENRE=Country
TTITLE0=O menino da porteira
TTITLE1=Filho adotivo
TTITLE2=Outra vez
TTITLE3=Tocando em frente
TTITLE4=Panela velha
TTITLE5=Chico mineiro
TTITLE6=Adeus, Mariana
TTITLE7=Cabocla Tereza
TTITLE8=Boiadeiro Errante
TTITLE9=Pinha no pinheiro
TTITLE10=Saudade da minha terra
TTITLE11=Tristeza do Jeca
TTITLE12=Cavalo Enxuto
TTITLE13=Escolta de vagalumes
EXTD=YEAR: 2008
EXTT0=
EXTT1=
EXTT2=
EXTT3=
EXTT4=
EXTT5=
EXTT6=
EXTT7=
EXTT8=
EXTT9=
EXTT10=
EXTT11=
EXTT12=
EXTT13=
PLAYORDER=
